<?xml version="1.0" encoding="UTF-8" standalone="no"?>
<!-- Created with Inkscape (http://www.inkscape.org/) -->

<svg
   xmlns:dc="http://purl.org/dc/elements/1.1/"
   xmlns:cc="http://creativecommons.org/ns#"
   xmlns:rdf="http://www.w3.org/1999/02/22-rdf-syntax-ns#"
   xmlns:svg="http://www.w3.org/2000/svg"
   xmlns="http://www.w3.org/2000/svg"
   version="1.1"
   width="240.62756"
   height="360.4942"
   id="svg2">
  <metadata
     id="metadata8">
    <rdf:RDF>
      <cc:Work
         rdf:about="">
        <dc:format>image/svg+xml</dc:format>
        <dc:type
           rdf:resource="http://purl.org/dc/dcmitype/StillImage" />
        <dc:title></dc:title>
      </cc:Work>
    </rdf:RDF>
  </metadata>
  <defs
     id="defs6" />
  <g
     id="layer2"
     style="display:inline">
    <path
       d="M 0.53033013,6.2337042 C 21.289373,4.8194906 40.815852,3.4052771 64.16994,1.9910635 90.686443,0.12242746 117.20295,0.52702854 143.71945,1.4607334 156.44139,9.3886849 168.37878,10.302482 178.19091,14.188656 208.55644,6.4231751 234.07678,10.700442 241.30019,9.9460148 228.33258,129.63864 227.57466,246.4584 238.64854,360.4942 c -39.86047,-2.87396 -80.75487,-5.23095 -126.21856,-5.3033 -51.163729,1.02281 -80.160966,3.43103 -109.2479995,5.83363 L 0,360.4942 1.0606602,313.29482 c 7.5236822,-89.1928 1.6244566,-172.42893 0,-259.861738 z"
       id="path3007"
       style="fill:#cb3200;fill-opacity:1;stroke:none" />
  </g>
  <g
     id="layer3"
     style="display:inline">
    <path
       d="m 64.3125,71.181701 c -1.044522,-21.565655 5.106526,-35.178313 13.5,-46.3125 -7.865184,3.567926 -14.841053,10.26018 -15.5625,20.25 -0.721447,9.98982 -1.102118,17.5625 2.0625,26.0625 z"
       id="path3778"
       style="fill:#ffff00;stroke:#ffff00;stroke-width:1px;stroke-linecap:butt;stroke-linejoin:miter;stroke-opacity:1" />
    <path
       d="M 72.375,109.8067 C 78.168354,82.179774 74.36713,56.048286 97.5,34.994201 c 3.40045,-3.094876 4.74259,0.143501 5.8125,-1.3125 1.96669,-2.676397 -0.22376,-5.717081 -2.34375,-6.1875 -2.153135,-0.477774 -3.60207,0.651153 -5.34375,1.875 C 84.057089,37.497763 77.741024,49.820225 74.34375,63.775451 70.946476,77.730677 71.104444,90.624194 72.375,109.6192"
       id="path3780"
       style="fill:#ffff00;stroke:#ffff00;stroke-width:1px;stroke-linecap:butt;stroke-linejoin:miter;stroke-opacity:1" />
    <path
       d="m 173.94827,87.904537 c 0.21801,-2.350918 -1.41562,-6.192312 0.39775,-8.352698 1.73109,-2.062361 3.92566,-0.505607 5.43588,1.723572 1.98363,2.927971 0.87437,6.220553 0.13258,9.678524 -5.14677,23.992535 -19.22447,41.233165 -19.22447,41.233165 0.40121,-0.1003 11.78257,-28.36973 13.25826,-44.282563 z"
       id="path3782"
       style="fill:#ffff00;stroke:#ffff00;stroke-width:1px;stroke-linecap:butt;stroke-linejoin:miter;stroke-opacity:1" />
    <path
       d="m 190.3885,73.453042 c 0,0 12.91445,5.735787 13.78858,12.330175 0.87413,6.594388 -10.84862,18.218523 -12.06501,18.826713 0,0 7.08844,-10.248602 6.76171,-16.04248 -0.3253,-5.76862 -8.48528,-15.114408 -8.48528,-15.114408 z"
       id="path3784"
       style="fill:#ffff00;stroke:#ffff00;stroke-width:1px;stroke-linecap:butt;stroke-linejoin:miter;stroke-opacity:1" />
    <g
       transform="scale(1.1081963,0.90236724)"
       id="text3786"
       style="font-size:44.32785034px;font-style:normal;font-variant:normal;font-weight:normal;font-stretch:normal;line-height:125%;letter-spacing:0px;word-spacing:0px;fill:#f9f9f9;fill-opacity:1;stroke:none;font-family:DejaVu Serif;-inkscape-font-specification:DejaVu Serif">
      <path
         d="m 39.002019,310.92573 -3.506402,0 0,-2.31596 3.506402,0 0,-7.14267 4.004225,0 0,7.14267 7.488982,0 0,2.31596 -7.488982,0 0,14.61001 c -9e-6,1.948 0.187576,3.19616 0.562756,3.74449 0.37516,0.54832 1.067782,0.82249 2.077868,0.82249 1.038921,0 1.796476,-0.30302 2.272668,-0.90907 0.476164,-0.62047 0.728682,-1.61612 0.757556,-2.98694 l 3.008579,0 c -0.115454,2.0923 -0.685424,3.62184 -1.709912,4.58863 -1.024519,0.96678 -2.582918,1.45018 -4.675203,1.45018 -2.294321,0 -3.917654,-0.50504 -4.870003,-1.51511 -0.952361,-1.02451 -1.428539,-2.75606 -1.428534,-5.19467 l 0,-14.61001"
         id="path3874" />
      <path
         d="m 74.845241,324.71325 c -0.562778,2.45304 -1.644999,4.32168 -3.246668,5.60591 -1.601708,1.28424 -3.672359,1.92636 -6.21196,1.92636 -3.347686,0 -6.038811,-1.10387 -8.073383,-3.3116 -2.034582,-2.22216 -3.05187,-5.16581 -3.051868,-8.83094 -2e-6,-3.67955 1.017286,-6.61597 3.051868,-8.8093 2.034572,-2.20771 4.725697,-3.31158 8.073383,-3.3116 1.457379,2e-5 2.907556,0.17318 4.350536,0.51947 1.442945,0.3319 2.893122,0.84415 4.350536,1.53675 l 0,5.8873 -2.315957,0 c -0.303041,-2.02014 -0.966804,-3.49196 -1.99129,-4.41547 -1.010091,-0.92348 -2.460268,-1.38523 -4.350536,-1.38525 -2.150027,2e-5 -3.77336,0.83694 -4.870003,2.51076 -1.09666,1.65942 -1.644986,4.14853 -1.644979,7.46734 -7e-6,3.31882 0.541104,5.81515 1.623335,7.48898 1.096643,1.67384 2.72719,2.51076 4.891647,2.51076 1.717112,0 3.087926,-0.44732 4.112447,-1.34196 1.024486,-0.89463 1.724323,-2.2438 2.099513,-4.04751 l 3.203379,0"
         id="path3876" />
      <path
         d="m 85.992135,329.32352 3.766136,0 0,2.29431 -11.579785,0 0,-2.29431 3.831069,0 0,-29.09016 -3.831069,0 0,-2.29431 7.813649,0 0,31.38447"
         id="path3878" />
      <path
         d="m 124.10803,310.92573 -3.5064,0 0,-2.31596 3.5064,0 0,-7.14267 4.00422,0 0,7.14267 7.48899,0 0,2.31596 -7.48899,0 0,14.61001 c 0,1.948 0.18758,3.19616 0.56276,3.74449 0.37516,0.54832 1.06778,0.82249 2.07787,0.82249 1.03892,0 1.79647,-0.30302 2.27267,-0.90907 0.47616,-0.62047 0.72868,-1.61612 0.75755,-2.98694 l 3.00858,0 c -0.11545,2.0923 -0.68542,3.62184 -1.70991,4.58863 -1.02452,0.96678 -2.58292,1.45018 -4.6752,1.45018 -2.29432,0 -3.91766,-0.50504 -4.87001,-1.51511 -0.95236,-1.02451 -1.42854,-2.75606 -1.42853,-5.19467 l 0,-14.61001"
         id="path3880" />
      <path
         d="m 149.84329,331.61783 -11.16854,0 0,-2.29431 3.59298,0 0,-29.09016 -3.83107,0 0,-2.29431 7.81365,0 0,21.92584 9.69671,-8.93916 -3.3116,0 0,-2.31596 10.41099,0 0,2.31596 -3.9393,0 -6.83964,6.32018 8.74436,12.07761 3.3116,0 0,2.29431 -11.3417,0 0,-2.29431 3.28996,0 -6.88294,-9.45863 -3.13844,2.922 0,6.53663 3.59298,0 0,2.29431"
         id="path3882" />
    </g>
  </g>
  <g
     id="layer4"
     style="display:inline">
    <path
       d="m 152.4699,63.774518 c 0,0 -0.27978,-6.961883 -5.83363,-11.402096 C 126.74526,36.469877 82.258481,99.70911 95.459416,137.4904 L 143.71945,69.07782"
       id="path3791"
       style="fill:#ffffff;stroke:#ffffff;stroke-width:1px;stroke-linecap:butt;stroke-linejoin:miter;stroke-opacity:1" />
    <path
       d="m 137.62066,100.36729 c 0,0 10.54845,-8.413108 15.64473,-6.098792 3.08035,1.398845 3.70207,6.172462 3.44715,9.545942 -2.95831,39.14899 -25.72101,49.58586 -25.72101,49.58586 26.798,-24.45386 28.41835,-74.899937 8.22012,-52.23751 l 0,0 z"
       id="path3793"
       style="fill:#ffffff;stroke:#ffffff;stroke-width:1px;stroke-linecap:butt;stroke-linejoin:miter;stroke-opacity:1" />
    <path
       d="m 100.0998,157.64294 c -6.294444,-3.60504 -11.466743,-7.80191 -16.042481,-13.12566 -0.401678,18.17572 -4.51136,35.3236 12.065009,80.07984 z"
       id="path3795"
       style="fill:#ffffff;stroke:#ffffff;stroke-width:1px;stroke-linecap:butt;stroke-linejoin:miter;stroke-opacity:1" />
    <path
       d="m 101.95596,235.73405 c -6.688742,-1.95831 -12.091599,-4.84182 -17.103146,-9.1482 2.802247,15.05555 10.24915,20.13477 20.417706,31.1569 -2.20271,-12.07295 -6.977946,-22.14145 -3.31456,-22.0087 z"
       id="path3797"
       style="fill:#ffffff;stroke:#ffffff;stroke-width:1px;stroke-linecap:butt;stroke-linejoin:miter;stroke-opacity:1" />
    <path
       d="m 121.57265,225.28668 c 6.99352,-4.09815 13.86591,-4.63892 16.97609,-11.56133 0.79957,8.4812 1.00807,15.12379 -1.72358,24.92551 -3.51462,12.6112 -8.9224,15.62171 -15.11441,20.94805 l -0.53033,-2.25391 3.44715,-28.90299"
       id="path3799"
       style="fill:#ffffff;stroke:#ffffff;stroke-width:1px;stroke-linecap:butt;stroke-linejoin:miter;stroke-opacity:1" />
    <path
       d="m 129.79829,163.47657 7.15945,-4.5078 c 2.59413,-0.18707 4.14084,-0.025 5.70105,0.13258 -3.00267,9.87206 0.4232,34.32481 -3.31456,42.82415 -1.97376,4.55346 -5.43759,9.54153 -7.75413,12.03836 4.35537,-11.42557 5.76876,-16.83626 5.37707,-25.88185 l -0.53975,-14.39658 c -0.0107,-1.27886 2.57807,-3.94413 -2.25391,-2.65165 z"
       id="path3801"
       style="fill:#ffffff;stroke:#ffffff;stroke-width:1px;stroke-linecap:butt;stroke-linejoin:miter;stroke-opacity:1" />
    <path
       d="m 116.40745,128.73995 c -8.17563,55.17433 -3.63678,121.27138 7.95495,177.26283 -4.21404,-19.0935 -14.44382,-33.36837 -16.17506,-97.0504 -0.50418,-42.00593 4.66258,-56.04478 8.22011,-80.21243 z"
       id="path3806"
       style="fill:#ffffff;stroke:#ffffff;stroke-width:1px;stroke-linecap:butt;stroke-linejoin:miter;stroke-opacity:1" />
  </g>
  <g
     id="layer5"
     style="display:inline">
    <path
       d="m 152.8125,65.181702 c 0.38349,-6.143579 -13.397,-9.2453 -16.875,-7.500001 -39.855411,19.999883 -41.283285,53.793819 -39.75,90.937499 -0.301309,3.3539 1.403829,7.14496 -1.875,8.4375 -2.609268,-3.29634 -5.195248,-3.10124 -5.8125,3.5625 -0.901848,24.03961 3.145939,41.20608 8.34375,73.59375 -2.4375,-0.73133 -4.3125,1.01637 -6.75,2.25 4.967459,9.1569 12.04566,18.33654 19.5,26.25 -4.21313,-9.41338 -5.96162,-85.4114 -3.84375,-97.59375 2.6509,-15.24838 2.04809,-9.97111 7.03125,-21.375 -2.31717,43.321 -1.82169,88.48014 6.09375,126.46875 6.82593,-11.39354 17.27207,-28.48561 17.625,-47.71875 -5.43899,1.83982 -11.20356,3.23765 -11.71875,-0.0937 0,0 -0.68215,-2.9337 0.0937,-4.03125 2.74467,-3.88245 3.30929,-4.98589 6,-14.53125 3.03613,-10.77072 2.33721,-15.71265 6.65625,-41.8125 0.0606,-1.04962 0.22328,-3.67278 -7.875,-2.25 11.35583,-13.70305 23.67479,-60.339826 18.46875,-60.656248 -6.77088,-0.411533 -14.76001,1.193428 -20.53125,2.531248 L 142.875,79.806702 c 0,0 9.57771,-8.861068 9.9375,-14.625 z"
       id="path3804"
       style="fill:#003298;fill-opacity:1;stroke:#003298;stroke-width:0.40000001;stroke-linecap:butt;stroke-linejoin:miter;stroke-miterlimit:4;stroke-opacity:1;stroke-dasharray:none" />
  </g>
</svg>
